<mxfile host="app.diagrams.net" modified="2023-11-06T15:40:28.468Z" agent="Mozilla/5.0 (Windows NT 10.0; Win64; x64) AppleWebKit/537.36 (KHTML, like Gecko) Chrome/119.0.0.0 Safari/537.36 Edg/119.0.0.0" etag="clPOXZH6slUo196pp6jz" version="22.0.8" type="device">
  <diagram id="6I0OCvxSQrVGMHxT2VVA" name="Page-1">
    <mxGraphModel dx="1514" dy="831" grid="1" gridSize="10" guides="1" tooltips="1" connect="1" arrows="1" fold="1" page="1" pageScale="1" pageWidth="850" pageHeight="1100" math="0" shadow="0">
      <root>
        <mxCell id="0" />
        <mxCell id="1" parent="0" />
        <mxCell id="dKdSaXE48SgPbhcamS2K-63" value="Контекстная диаграмма" style="text;strokeColor=none;fillColor=none;html=1;fontSize=24;fontStyle=1;verticalAlign=middle;align=center;" parent="1" vertex="1">
          <mxGeometry x="50" y="70" width="1590" height="40" as="geometry" />
        </mxCell>
        <mxCell id="9IXI6Jq3zBvFGFt_1Ec7-7" value="" style="group" parent="1" vertex="1" connectable="0">
          <mxGeometry x="1260" y="360" width="150" height="153" as="geometry" />
        </mxCell>
        <mxCell id="9IXI6Jq3zBvFGFt_1Ec7-1" value="" style="html=1;whiteSpace=wrap;fillColor=#dae8fc;shape=mxgraph.archimate3.actor;fontSize=14;strokeColor=#6c8ebf;" parent="9IXI6Jq3zBvFGFt_1Ec7-7" vertex="1">
          <mxGeometry x="54" y="-2" width="50" height="95" as="geometry" />
        </mxCell>
        <mxCell id="9IXI6Jq3zBvFGFt_1Ec7-2" value="&lt;span style=&quot;font-size: 18px;&quot;&gt;Менеджер&lt;br&gt;Авто-Гарантия&lt;/span&gt;" style="text;html=1;align=center;verticalAlign=middle;resizable=0;points=[];autosize=1;strokeColor=none;fillColor=none;container=0;" parent="9IXI6Jq3zBvFGFt_1Ec7-7" vertex="1">
          <mxGeometry y="93" width="150" height="60" as="geometry" />
        </mxCell>
        <mxCell id="9IXI6Jq3zBvFGFt_1Ec7-8" value="" style="group" parent="1" vertex="1" connectable="0">
          <mxGeometry x="1295" y="90" width="105" height="153" as="geometry" />
        </mxCell>
        <mxCell id="9IXI6Jq3zBvFGFt_1Ec7-9" value="" style="html=1;whiteSpace=wrap;fillColor=#dae8fc;shape=mxgraph.archimate3.actor;fontSize=14;strokeColor=#6c8ebf;" parent="9IXI6Jq3zBvFGFt_1Ec7-8" vertex="1">
          <mxGeometry x="14" width="50" height="95" as="geometry" />
        </mxCell>
        <mxCell id="9IXI6Jq3zBvFGFt_1Ec7-10" value="&lt;span style=&quot;font-size: 18px;&quot;&gt;Менеджер&lt;br&gt;&amp;nbsp;СТОА&lt;/span&gt;" style="text;html=1;align=center;verticalAlign=middle;resizable=0;points=[];autosize=1;strokeColor=none;fillColor=none;" parent="9IXI6Jq3zBvFGFt_1Ec7-8" vertex="1">
          <mxGeometry x="-20" y="93" width="110" height="60" as="geometry" />
        </mxCell>
        <mxCell id="9IXI6Jq3zBvFGFt_1Ec7-11" value="" style="group" parent="1" vertex="1" connectable="0">
          <mxGeometry x="347" y="140" width="70" height="143" as="geometry" />
        </mxCell>
        <mxCell id="9IXI6Jq3zBvFGFt_1Ec7-12" value="" style="html=1;whiteSpace=wrap;fillColor=#dae8fc;shape=mxgraph.archimate3.actor;fontSize=14;strokeColor=#6c8ebf;" parent="9IXI6Jq3zBvFGFt_1Ec7-11" vertex="1">
          <mxGeometry x="14" width="50" height="95" as="geometry" />
        </mxCell>
        <mxCell id="9IXI6Jq3zBvFGFt_1Ec7-13" value="&lt;font style=&quot;font-size: 18px;&quot;&gt;Клиет&lt;/font&gt;" style="text;html=1;align=center;verticalAlign=middle;resizable=0;points=[];autosize=1;strokeColor=none;fillColor=none;" parent="9IXI6Jq3zBvFGFt_1Ec7-11" vertex="1">
          <mxGeometry y="103" width="70" height="40" as="geometry" />
        </mxCell>
        <mxCell id="9IXI6Jq3zBvFGFt_1Ec7-17" value="AutoPart-Express" style="rounded=1;whiteSpace=wrap;html=1;fillColor=#dae8fc;strokeColor=#6c8ebf;" parent="1" vertex="1">
          <mxGeometry x="690" y="210" width="330" height="170" as="geometry" />
        </mxCell>
        <mxCell id="9IXI6Jq3zBvFGFt_1Ec7-21" value="" style="endArrow=classic;html=1;rounded=0;entryX=1;entryY=0.75;entryDx=0;entryDy=0;dashed=1;" parent="1" target="9IXI6Jq3zBvFGFt_1Ec7-17" edge="1">
          <mxGeometry width="50" height="50" relative="1" as="geometry">
            <mxPoint x="1300" y="420" as="sourcePoint" />
            <mxPoint x="920" y="370" as="targetPoint" />
          </mxGeometry>
        </mxCell>
        <mxCell id="9IXI6Jq3zBvFGFt_1Ec7-45" value="&lt;span style=&quot;font-size: 12px;&quot;&gt;Управляет каталогом комплектующих&lt;br&gt;Отслеживает заказы и активность клиентов&lt;br&gt;Управляет учетными записями&lt;br&gt;&lt;/span&gt;" style="edgeLabel;html=1;align=center;verticalAlign=middle;resizable=0;points=[];" parent="9IXI6Jq3zBvFGFt_1Ec7-21" vertex="1" connectable="0">
          <mxGeometry x="-0.0198" y="3" relative="1" as="geometry">
            <mxPoint x="1" as="offset" />
          </mxGeometry>
        </mxCell>
        <mxCell id="9IXI6Jq3zBvFGFt_1Ec7-22" value="" style="endArrow=classic;html=1;rounded=0;dashed=1;" parent="1" target="9IXI6Jq3zBvFGFt_1Ec7-17" edge="1">
          <mxGeometry width="50" height="50" relative="1" as="geometry">
            <mxPoint x="410" y="190" as="sourcePoint" />
            <mxPoint x="920" y="370" as="targetPoint" />
          </mxGeometry>
        </mxCell>
        <mxCell id="9IXI6Jq3zBvFGFt_1Ec7-43" value="&lt;span style=&quot;font-size: 12px;&quot;&gt;Оформляет заказ на ремонт&lt;br&gt;Просматривает историю заказов&lt;br&gt;Оставляет отзывы&lt;br&gt;&lt;/span&gt;" style="edgeLabel;html=1;align=center;verticalAlign=middle;resizable=0;points=[];" parent="9IXI6Jq3zBvFGFt_1Ec7-22" vertex="1" connectable="0">
          <mxGeometry x="-0.2564" y="-2" relative="1" as="geometry">
            <mxPoint x="1" as="offset" />
          </mxGeometry>
        </mxCell>
        <mxCell id="9IXI6Jq3zBvFGFt_1Ec7-24" value="" style="endArrow=classic;html=1;rounded=0;dashed=1;" parent="1" target="9IXI6Jq3zBvFGFt_1Ec7-17" edge="1">
          <mxGeometry width="50" height="50" relative="1" as="geometry">
            <mxPoint x="1320" y="160" as="sourcePoint" />
            <mxPoint x="930" y="370" as="targetPoint" />
          </mxGeometry>
        </mxCell>
        <mxCell id="9IXI6Jq3zBvFGFt_1Ec7-44" value="Обрабатыает заказ на ремонт&lt;br&gt;Заказывает запчасти и комплектующие&lt;br&gt;Отмечает выполнение заказа" style="edgeLabel;html=1;align=center;verticalAlign=middle;resizable=0;points=[];" parent="9IXI6Jq3zBvFGFt_1Ec7-24" vertex="1" connectable="0">
          <mxGeometry x="0.0995" y="-3" relative="1" as="geometry">
            <mxPoint x="1" as="offset" />
          </mxGeometry>
        </mxCell>
        <mxCell id="9IXI6Jq3zBvFGFt_1Ec7-25" value="&lt;font size=&quot;3&quot;&gt;Платежная система&lt;/font&gt;" style="rounded=1;whiteSpace=wrap;html=1;fillColor=#dae8fc;strokeColor=#6c8ebf;" parent="1" vertex="1">
          <mxGeometry x="450" y="540" width="210" height="100" as="geometry" />
        </mxCell>
        <mxCell id="9IXI6Jq3zBvFGFt_1Ec7-26" value="&lt;font size=&quot;3&quot;&gt;Сервис доставки&lt;/font&gt;" style="rounded=1;whiteSpace=wrap;html=1;fillColor=#f5f5f5;strokeColor=#666666;fontColor=#333333;" parent="1" vertex="1">
          <mxGeometry x="1050" y="540" width="210" height="100" as="geometry" />
        </mxCell>
        <mxCell id="9IXI6Jq3zBvFGFt_1Ec7-27" value="" style="endArrow=classic;html=1;rounded=0;entryX=0.5;entryY=0;entryDx=0;entryDy=0;exitX=0.342;exitY=1.005;exitDx=0;exitDy=0;exitPerimeter=0;dashed=1;" parent="1" source="9IXI6Jq3zBvFGFt_1Ec7-17" target="9IXI6Jq3zBvFGFt_1Ec7-25" edge="1">
          <mxGeometry width="50" height="50" relative="1" as="geometry">
            <mxPoint x="880" y="420" as="sourcePoint" />
            <mxPoint x="930" y="370" as="targetPoint" />
          </mxGeometry>
        </mxCell>
        <mxCell id="9IXI6Jq3zBvFGFt_1Ec7-41" value="&lt;font style=&quot;font-size: 12px;&quot;&gt;Передает платежную информацию&lt;/font&gt;" style="edgeLabel;html=1;align=center;verticalAlign=middle;resizable=0;points=[];" parent="9IXI6Jq3zBvFGFt_1Ec7-27" vertex="1" connectable="0">
          <mxGeometry x="-0.0126" y="-1" relative="1" as="geometry">
            <mxPoint as="offset" />
          </mxGeometry>
        </mxCell>
        <mxCell id="9IXI6Jq3zBvFGFt_1Ec7-28" value="" style="endArrow=classic;html=1;rounded=0;entryX=0.5;entryY=0;entryDx=0;entryDy=0;exitX=0.671;exitY=1.005;exitDx=0;exitDy=0;exitPerimeter=0;dashed=1;" parent="1" source="9IXI6Jq3zBvFGFt_1Ec7-17" target="9IXI6Jq3zBvFGFt_1Ec7-26" edge="1">
          <mxGeometry width="50" height="50" relative="1" as="geometry">
            <mxPoint x="880" y="420" as="sourcePoint" />
            <mxPoint x="930" y="370" as="targetPoint" />
          </mxGeometry>
        </mxCell>
        <mxCell id="9IXI6Jq3zBvFGFt_1Ec7-42" value="&lt;span style=&quot;font-size: 12px;&quot;&gt;Передает заказ в доставку&lt;/span&gt;" style="edgeLabel;html=1;align=center;verticalAlign=middle;resizable=0;points=[];" parent="9IXI6Jq3zBvFGFt_1Ec7-28" vertex="1" connectable="0">
          <mxGeometry x="-0.0823" relative="1" as="geometry">
            <mxPoint as="offset" />
          </mxGeometry>
        </mxCell>
        <mxCell id="9IXI6Jq3zBvFGFt_1Ec7-29" value="" style="swimlane;startSize=0;fillColor=#f5f5f5;fontColor=#333333;strokeColor=#666666;" parent="1" vertex="1">
          <mxGeometry x="360" y="700" width="1040" height="130" as="geometry" />
        </mxCell>
        <mxCell id="9IXI6Jq3zBvFGFt_1Ec7-34" value="Пользователь" style="text;html=1;strokeColor=none;fillColor=none;align=center;verticalAlign=middle;whiteSpace=wrap;rounded=0;fontSize=16;" parent="9IXI6Jq3zBvFGFt_1Ec7-29" vertex="1">
          <mxGeometry x="100" y="54.89999999999998" width="60" height="30" as="geometry" />
        </mxCell>
        <mxCell id="9IXI6Jq3zBvFGFt_1Ec7-35" value="" style="rounded=1;whiteSpace=wrap;html=1;fillColor=#dae8fc;strokeColor=#6c8ebf;" parent="9IXI6Jq3zBvFGFt_1Ec7-29" vertex="1">
          <mxGeometry x="200" y="48.5" width="100" height="33" as="geometry" />
        </mxCell>
        <mxCell id="9IXI6Jq3zBvFGFt_1Ec7-36" value="Система&lt;br&gt;подлежащая&lt;br&gt;разработке" style="text;html=1;strokeColor=none;fillColor=none;align=center;verticalAlign=middle;whiteSpace=wrap;rounded=0;fontSize=16;" parent="9IXI6Jq3zBvFGFt_1Ec7-29" vertex="1">
          <mxGeometry x="330" y="41.5" width="60" height="61.5" as="geometry" />
        </mxCell>
        <mxCell id="9IXI6Jq3zBvFGFt_1Ec7-37" value="" style="rounded=1;whiteSpace=wrap;html=1;fillColor=#f5f5f5;strokeColor=#666666;fontColor=#333333;" parent="9IXI6Jq3zBvFGFt_1Ec7-29" vertex="1">
          <mxGeometry x="480" y="48.5" width="100" height="31.5" as="geometry" />
        </mxCell>
        <mxCell id="9IXI6Jq3zBvFGFt_1Ec7-38" value="Существующая&lt;br&gt;система" style="text;html=1;strokeColor=none;fillColor=none;align=center;verticalAlign=middle;whiteSpace=wrap;rounded=0;fontSize=16;" parent="9IXI6Jq3zBvFGFt_1Ec7-29" vertex="1">
          <mxGeometry x="620" y="41.5" width="60" height="61.5" as="geometry" />
        </mxCell>
        <mxCell id="9IXI6Jq3zBvFGFt_1Ec7-39" value="" style="endArrow=classic;html=1;rounded=0;dashed=1;" parent="9IXI6Jq3zBvFGFt_1Ec7-29" edge="1">
          <mxGeometry width="50" height="50" relative="1" as="geometry">
            <mxPoint x="780" y="60" as="sourcePoint" />
            <mxPoint x="870" y="60" as="targetPoint" />
          </mxGeometry>
        </mxCell>
        <mxCell id="9IXI6Jq3zBvFGFt_1Ec7-40" value="Использует" style="text;html=1;strokeColor=none;fillColor=none;align=center;verticalAlign=middle;whiteSpace=wrap;rounded=0;fontSize=16;" parent="9IXI6Jq3zBvFGFt_1Ec7-29" vertex="1">
          <mxGeometry x="915" y="33.49999999999998" width="60" height="61.5" as="geometry" />
        </mxCell>
        <mxCell id="9IXI6Jq3zBvFGFt_1Ec7-30" value="&lt;span style=&quot;font-size: 24px;&quot;&gt;Key&lt;/span&gt;" style="text;html=1;align=center;verticalAlign=middle;resizable=0;points=[];autosize=1;strokeColor=none;fillColor=none;" parent="1" vertex="1">
          <mxGeometry x="363" y="697" width="60" height="40" as="geometry" />
        </mxCell>
        <mxCell id="9IXI6Jq3zBvFGFt_1Ec7-31" value="" style="group" parent="1" vertex="1" connectable="0">
          <mxGeometry x="390" y="740" width="50" height="90" as="geometry" />
        </mxCell>
        <mxCell id="9IXI6Jq3zBvFGFt_1Ec7-32" value="" style="html=1;whiteSpace=wrap;fillColor=#dae8fc;shape=mxgraph.archimate3.actor;fontSize=14;strokeColor=#6c8ebf;" parent="9IXI6Jq3zBvFGFt_1Ec7-31" vertex="1">
          <mxGeometry x="10" width="35.714285714285715" height="59.79020979020979" as="geometry" />
        </mxCell>
        <mxCell id="m3exK8MYxqiLHc6SURar-1" value="&lt;font size=&quot;3&quot;&gt;Система страхования&lt;/font&gt;" style="rounded=1;whiteSpace=wrap;html=1;fillColor=#f5f5f5;strokeColor=#666666;fontColor=#333333;" vertex="1" parent="1">
          <mxGeometry x="760" y="540" width="210" height="100" as="geometry" />
        </mxCell>
        <mxCell id="m3exK8MYxqiLHc6SURar-2" value="" style="endArrow=classic;html=1;rounded=0;entryX=0.5;entryY=1;entryDx=0;entryDy=0;exitX=0.444;exitY=-0.028;exitDx=0;exitDy=0;exitPerimeter=0;dashed=1;" edge="1" parent="1" source="m3exK8MYxqiLHc6SURar-1" target="9IXI6Jq3zBvFGFt_1Ec7-17">
          <mxGeometry width="50" height="50" relative="1" as="geometry">
            <mxPoint x="813" y="391" as="sourcePoint" />
            <mxPoint x="565" y="550" as="targetPoint" />
          </mxGeometry>
        </mxCell>
        <mxCell id="m3exK8MYxqiLHc6SURar-3" value="&lt;span style=&quot;font-size: 12px;&quot;&gt;Информация по застрахованным ТС&lt;/span&gt;" style="edgeLabel;html=1;align=center;verticalAlign=middle;resizable=0;points=[];" vertex="1" connectable="0" parent="m3exK8MYxqiLHc6SURar-2">
          <mxGeometry x="-0.0126" y="-1" relative="1" as="geometry">
            <mxPoint x="-5" y="31" as="offset" />
          </mxGeometry>
        </mxCell>
        <mxCell id="m3exK8MYxqiLHc6SURar-4" value="" style="endArrow=classic;html=1;rounded=0;entryX=0.554;entryY=0.028;entryDx=0;entryDy=0;dashed=1;entryPerimeter=0;exitX=0.57;exitY=1.007;exitDx=0;exitDy=0;exitPerimeter=0;" edge="1" parent="1" source="9IXI6Jq3zBvFGFt_1Ec7-17" target="m3exK8MYxqiLHc6SURar-1">
          <mxGeometry width="50" height="50" relative="1" as="geometry">
            <mxPoint x="920" y="410" as="sourcePoint" />
            <mxPoint x="865" y="390" as="targetPoint" />
          </mxGeometry>
        </mxCell>
        <mxCell id="m3exK8MYxqiLHc6SURar-5" value="&lt;span style=&quot;font-size: 12px;&quot;&gt;Данные по убыткам&lt;/span&gt;" style="edgeLabel;html=1;align=center;verticalAlign=middle;resizable=0;points=[];" vertex="1" connectable="0" parent="m3exK8MYxqiLHc6SURar-4">
          <mxGeometry x="-0.0126" y="-1" relative="1" as="geometry">
            <mxPoint x="-5" y="-41" as="offset" />
          </mxGeometry>
        </mxCell>
      </root>
    </mxGraphModel>
  </diagram>
</mxfile>
